<svg width="20" height="20" viewBox="0 0 20 20" xmlns="http://www.w3.org/2000/svg">
  <path d="M18 0a2 2 0 012 2v16a2 2 0 01-2 2H2a2 2 0 01-2-2V2a2 2 0 012-2h16zm-8 3a7 7 0 00-2.213 13.642c.35.064.478-.152.478-.337v-.15c-.003-.219-.007-.586-.01-1.04-1.947.422-2.357-.94-2.357-.94-.319-.808-.778-1.023-.778-1.023-.565-.386-.087-.422.026-.425h.022c.703.049 1.073.72 1.073.72.624 1.07 1.638.762 2.037.582.063-.452.244-.76.444-.935-1.554-.177-3.188-.778-3.188-3.46 0-.764.273-1.39.72-1.878-.072-.177-.312-.89.07-1.853 0 0 .586-.188 1.924.718A6.705 6.705 0 0110 6.385c.595.003 1.194.08 1.753.236 1.336-.906 1.923-.718 1.923-.718.382.964.141 1.676.07 1.853a2.7 2.7 0 01.72 1.878c0 2.69-1.638 3.281-3.197 3.454.251.216.475.644.475 1.297 0 .791-.006 1.454-.008 1.778v.142c0 .187.126.405.48.337A7 7 0 0010 3z" fill="#1C1C1B" fill-rule="evenodd"/>
</svg>
