<svg width="20" height="20" viewBox="0 0 20 20" xmlns="http://www.w3.org/2000/svg">
  <path d="M18 0a2 2 0 012 2v16a2 2 0 01-2 2H2a2 2 0 01-2-2V2a2 2 0 012-2h16zm-7.115 3h-1.77c-1.12.004-1.39.014-2.001.042-.745.034-1.254.152-1.7.326-.46.178-.85.418-1.24.807-.388.389-.628.78-.807 1.24-.173.445-.29.954-.325 1.699l-.016.37-.006.171C3.008 8 3.003 8.37 3 9.115v1.77c.003.746.008 1.115.02 1.46l.006.171.016.37c.034.745.152 1.254.325 1.7.18.46.419.85.808 1.24.389.388.78.628 1.24.807.445.173.954.29 1.699.325l.37.016.171.006c.345.012.714.017 1.46.02h1.77a45.881 45.881 0 001.46-.02l.171-.006.37-.016c.745-.034 1.254-.152 1.7-.325.46-.18.85-.419 1.24-.808.388-.389.628-.78.806-1.24.174-.445.292-.954.326-1.699.028-.61.038-.881.041-2v-.637L17 10v-.885a36.297 36.297 0 00-.042-2.001c-.034-.745-.152-1.254-.326-1.7a3.431 3.431 0 00-.807-1.24c-.389-.388-.78-.628-1.24-.806-.445-.174-.954-.292-1.699-.326-.61-.028-.881-.038-2-.041zm1.495 1.283l.17.007.279.012c.682.031 1.053.145 1.3.241.326.127.56.279.804.524.245.245.397.478.524.805.096.246.21.617.24 1.3.006.1.01.191.013.278l.007.17c.014.391.02.773.021 1.702v1.356a50.159 50.159 0 01-.018 1.618l-.006.168-.016.365c-.031.682-.145 1.053-.241 1.3-.127.326-.279.56-.524.804a2.169 2.169 0 01-.805.524c-.246.096-.617.21-1.3.241-.637.029-.889.038-2.15.04H9.322c-1.261-.002-1.513-.011-2.15-.04-.683-.031-1.054-.145-1.3-.241a2.169 2.169 0 01-.805-.524 2.169 2.169 0 01-.524-.805c-.096-.246-.21-.617-.241-1.3-.029-.637-.038-.889-.04-2.15V9.322c.002-1.261.011-1.513.04-2.15.031-.683.145-1.054.241-1.3.127-.327.279-.56.524-.805s.478-.397.805-.524c.246-.096.617-.21 1.3-.24l.364-.017.168-.006a50.16 50.16 0 011.618-.018h1.356c.93.001 1.31.007 1.702.021zM10 6.405a3.595 3.595 0 100 7.19 3.595 3.595 0 000-7.19zm0 1.262a2.333 2.333 0 110 4.666 2.333 2.333 0 010-4.666zm3.737-2.244a.84.84 0 100 1.68.84.84 0 000-1.68z" fill="#1C1C1B" fill-rule="evenodd"/>
</svg>
