<svg width="20" height="20" viewBox="0 0 20 20" xmlns="http://www.w3.org/2000/svg">
  <path d="M18 0a2 2 0 012 2v16a2 2 0 01-2 2H2a2 2 0 01-2-2V2a2 2 0 012-2h16zm-4.522 7.221c-1.572 0-2.304.837-2.718 1.46l-.04.06V7.437H7.66c.011.226.016.96.018 1.922v1.86c-.003 2.172-.013 4.578-.016 5.244v.133l-.001.025v.02h3.06v-5.14c0-.275.02-.55.1-.746.221-.55.725-1.119 1.57-1.119 1.107 0 1.55.845 1.55 2.081v4.925H17v-5.278c0-2.827-1.51-4.143-3.522-4.143zm-7.238.216H3.18v9.205h3.06V7.437zM4.731 3C3.684 3 3 3.687 3 4.59c0 .884.664 1.59 1.69 1.59h.02c1.068 0 1.732-.706 1.732-1.59C6.422 3.687 5.778 3 4.73 3z" fill="#1C1C1B" fill-rule="evenodd"/>
</svg>
