<svg width="174" height="38" viewBox="0 0 794 167" xmlns="http://www.w3.org/2000/svg">
  <path d="M77.85-.27c46.6 0 77.66 33.27 77.66 83.27 0 50-31.06 83.27-77.66 83.27C31.25 166.27.19 133.05.19 83S31.25-.27 77.85-.27zM566-.27C612.59-.27 643.65 33 643.65 83c0 50-31.07 83.27-77.65 83.27-46.59 0-77.66-33.22-77.66-83.27S519.41-.27 566-.27zM242.06 3.4c30.61 0 51.1 18.12 51.1 45.08 0 27.19-20.49 45.31-51.12 45.31h-47.46v67.73h-23.52V3.4h71zm83.83 0v69.68h79.82V3.4h23.51v158.12h-23.51V93.14h-79.82v68.38h-23.52V3.4h23.52zm147.46 0v158.12h-23.51V3.4h23.51zm230.5 0l62.35 139.79h4.31V3.4h23.3v158.12h-42.93L687 21.73h-4.32v139.79H659.2V3.4h44.65zm-626 18.12c-32.58 0-54.36 24.59-54.36 61.48s21.79 61.48 54.36 61.48c32.58 0 54.36-24.59 54.36-61.48s-21.78-61.48-54.36-61.48zm488.15 0c-32.56 0-54.38 24.59-54.38 61.48s21.79 61.48 54.38 61.48c32.58 0 54.37-24.59 54.37-61.48S598.56 21.52 566 21.52zm-323.96 3.67h-47.46v46.59H242c16.65 0 27.65-9.27 27.65-23.3 0-13.8-11-23.29-27.61-23.29z" fill="#1C1C1B" fill-rule="nonzero"/>
</svg>
